<svg width="30" height="27" viewBox="0 0 30 27" fill="none" xmlns="http://www.w3.org/2000/svg">
<path d="M14.638 4.03746L15.0456 4.61109L15.4532 4.03747C16.8605 2.05679 19.1236 0.5 21.627 0.5C25.8194 0.5 29.2274 3.93738 29.2274 8.18895C29.2274 8.63058 29.1886 9.06387 29.1172 9.4872L29.1103 9.52845V9.57029V9.57031V9.57032V9.57034V9.57036V9.57037V9.57039V9.57041V9.57042V9.57044V9.57046V9.57047V9.57049V9.57051V9.57052V9.57054V9.57055V9.57057V9.57059V9.5706V9.57062V9.57063V9.57065V9.57067V9.57068V9.5707V9.57071V9.57073V9.57074V9.57076V9.57078V9.57079V9.57081V9.57082V9.57084V9.57085V9.57087V9.57088V9.5709V9.57091V9.57093V9.57094V9.57096V9.57097V9.57099V9.571V9.57102V9.57103V9.57105V9.57106V9.57108V9.57109V9.57111V9.57112V9.57114V9.57115V9.57117V9.57118V9.57119V9.57121V9.57122V9.57124V9.57125V9.57127V9.57128V9.5713V9.57131V9.57132V9.57134V9.57135V9.57137V9.57138V9.5714V9.57141V9.57143V9.57144V9.57146V9.57147V9.57148V9.5715V9.57151V9.57153V9.57154V9.57156V9.57157V9.57158V9.5716V9.57161V9.57163V9.57164V9.57166V9.57167V9.57169V9.5717V9.57172V9.57173V9.57174V9.57176V9.57177V9.57179V9.5718V9.57182V9.57183V9.57185V9.57186V9.57188V9.57189V9.57191V9.57192V9.57193V9.57195V9.57196V9.57198V9.57199V9.57201V9.57202V9.57204V9.57205V9.57207V9.57208V9.5721V9.57211V9.57213V9.57215V9.57216V9.57218V9.57219V9.57221V9.57222V9.57224V9.57225V9.57227V9.57228V9.5723V9.57232V9.57233V9.57235V9.57236V9.57238V9.57239V9.57241V9.57243V9.57244V9.57246V9.57248V9.57249V9.57251V9.57252V9.57254V9.57256V9.57257V9.57259V9.57261V9.57262V9.57264V9.57266V9.57267V9.57269V9.57271V9.57273V9.57274V9.57276V9.57278V9.57279V9.57281V9.57283V9.57285V9.57286V9.57288V9.5729V9.57293C29.1103 14.1618 25.6366 18.2064 22.0121 21.1597C20.216 22.6231 18.4172 23.7906 17.0661 24.5926C16.3911 24.9933 15.8292 25.3019 15.4371 25.5099C15.2789 25.5938 15.1483 25.6613 15.0493 25.7118C14.9499 25.6595 14.8187 25.5896 14.6594 25.5026C14.267 25.2883 13.7049 24.9709 13.0295 24.5605C11.6778 23.739 9.87812 22.548 8.08104 21.0685C4.45188 18.0807 0.980894 14.0367 0.980894 9.57293V9.57292V9.57291V9.57289V9.57288V9.57287V9.57286V9.57285V9.57283V9.57282V9.57281V9.5728V9.57279V9.57278V9.57277V9.57275V9.57274V9.57273V9.57272V9.57271V9.5727V9.57269V9.57267V9.57266V9.57265V9.57264V9.57263V9.57262V9.57261V9.5726V9.57259V9.57257V9.57256V9.57255V9.57254V9.57253V9.57252V9.57251V9.5725V9.57249V9.57248V9.57246V9.57245V9.57244V9.57243V9.57242V9.57241V9.5724V9.57239V9.57238V9.57237V9.57236V9.57235V9.57234V9.57233V9.57232V9.5723V9.57229V9.57228V9.57227V9.57226V9.57225V9.57224V9.57223V9.57222V9.57221V9.5722V9.57219V9.57218V9.57217V9.57216V9.57215V9.57214V9.57213V9.57212V9.57211V9.5721V9.57209V9.57208V9.57207V9.57206V9.57205V9.57204V9.57203V9.57202V9.57201V9.572V9.57199V9.57198V9.57197V9.57196V9.57195V9.57194V9.57193V9.57192V9.57191V9.5719V9.57189V9.57188V9.57187V9.57186V9.57185V9.57184V9.57183V9.57182V9.57181V9.5718V9.57179V9.57178V9.57177V9.57176V9.57175V9.57174V9.57173V9.57172V9.57172V9.57171V9.5717V9.57169V9.57168V9.57167V9.57166V9.57165V9.57164V9.57163V9.57162V9.57161V9.5716V9.57159V9.57158V9.57157V9.57156V9.57155V9.57154V9.57153V9.57152V9.57151V9.5715V9.57149V9.57148V9.57147V9.57146V9.57146V9.57145V9.57144V9.57143V9.57142V9.57141V9.5714V9.57139V9.57138V9.57137V9.57136V9.57135V9.57134V9.57133V9.57132V9.57131V9.5713V9.57129V9.57128V9.57127V9.57126V9.57125V9.57124V9.57123V9.57122V9.57121V9.5712V9.57119V9.57118V9.57117V9.57117V9.57115V9.57115V9.57114V9.57113V9.57112V9.57111V9.5711V9.57109V9.57108V9.57107V9.57106V9.57105V9.57104V9.57103V9.57102V9.57101V9.571V9.57099V9.57098V9.57097V9.57096V9.57095V9.57094V9.57093V9.57092V9.57091V9.5709V9.57089V9.57088V9.57087V9.57086V9.57085V9.57084V9.57083V9.57082V9.57081V9.5708V9.57079V9.57078V9.57076V9.57075V9.57074V9.57073V9.57072V9.57071V9.5707V9.57069V9.57068V9.57067V9.57066V9.57065V9.57064V9.57063V9.57062V9.57061V9.5706V9.57059V9.57058V9.57057V9.57055V9.57054V9.57053V9.57052V9.57051V9.5705V9.57049V9.57048V9.57047V9.57046V9.57045V9.57043V9.57042V9.57041V9.5704V9.57039V9.57038V9.57037V9.57036V9.57035V9.57033V9.57032V9.57031V9.5703V9.57029V9.52846L0.973943 9.48721C0.902599 9.06382 0.86377 8.63057 0.86377 8.18895C0.86377 3.93738 4.27176 0.5 8.46425 0.5C10.9675 0.5 13.2307 2.05679 14.638 4.03746Z" stroke="#B12626"/>
</svg>
